{
  "source": "C:\\Users\\Peter\\Desktop\\stuff\\MIUN\\quantitative_research\\video_compression\\videos\\HEVC_CLASS_B\\Cactus_1920x1080_50.y4m",
  "output": "C:\\Users\\Peter\\Desktop\\stuff\\MIUN\\quantitative_research\\video_compression\\compressed_videos\\HEVC_CLASS_B\\vp9\\4\\Cactus_1920x1080_50_vp9.webm",
  "codec": "vp9",
  "ok": "Input #0, yuv4mpegpipe, from 'C:\\Users\\Peter\\Desktop\\stuff\\MIUN\\quantitative_research\\video_compression\\videos\\HEVC_CLASS_B\\Cactus_1920x1080_50.y4m':\n  Duration: 00:00:10.00, start: 0.000000, bitrate: 1244162 kb/s\n  Stream #0:0: Video: rawvideo (I420 / 0x30323449), yuv420p(progressive), 1920x1080, 50 fps, 50 tbr, 50 tbn\n[out#0/webm @ 000001707ba89b00] Codec AVOption b:a (set bitrate (in bits/s)) has not been used for any stream. The most likely reason is either wrong type (e.g. a video option with no video streams) or that it is a private option of some decoder which was not actually used for any stream.\nStream mapping:\n  Stream #0:0 -> #0:0 (rawvideo (native) -> vp9 (libvpx-vp9))\nPress [q] to stop, [?] for help\n[libvpx-vp9 @ 000001707ba8bf40] v1.15.2-100-g40561f514\nOutput #0, webm, to 'C:\\Users\\Peter\\Desktop\\stuff\\MIUN\\quantitative_research\\video_compression\\compressed_videos\\HEVC_CLASS_B\\vp9\\4\\Cactus_1920x1080_50_vp9.webm':\n  Metadata:\n    encoder         : Lavf62.3.100\n  Stream #0:0: Video: vp9, yuv420p(tv, progressive), 1920x1080, q=2-31, 4000 kb/s, 50 fps, 1k tbn\n    Metadata:\n      encoder         : Lavc62.11.100 libvpx-vp9\n    Side data:\n      cpb: bitrate max/min/avg: 0/0/0 buffer size: 4000000 vbv_delay: N/A\nframe=    0 fps=0.0 q=0.0 size=       0KiB time=N/A bitrate=N/A speed=N/A elapsed=0:00:00.51    \nframe=    5 fps=4.0 q=49.0 size=       0KiB time=00:00:00.10 bitrate=  38.6kbits/s speed=0.0791x elapsed=0:00:01.26    \nframe=   10 fps=5.5 q=44.0 size=       0KiB time=00:00:00.20 bitrate=  19.3kbits/s speed=0.109x elapsed=0:00:01.82    \nframe=   13 fps=5.4 q=44.0 size=       0KiB time=00:00:00.26 bitrate=  14.8kbits/s speed=0.109x elapsed=0:00:02.39    \nframe=   16 fps=5.5 q=44.0 size=       0KiB time=00:00:00.32 bitrate=  12.1kbits/s speed=0.11x elapsed=0:00:02.90    \nframe=   20 fps=5.8 q=46.0 size=       0KiB time=00:00:00.40 bitrate=   9.6kbits/s speed=0.116x elapsed=0:00:03.43    \nframe=   22 fps=5.5 q=46.0 size=       0KiB time=00:00:00.44 bitrate=   8.8kbits/s speed=0.11x elapsed=0:00:03.99    \nframe=   26 fps=5.7 q=46.0 size=       0KiB time=00:00:00.52 bitrate=   7.4kbits/s speed=0.115x elapsed=0:00:04.53    \nframe=   29 fps=5.7 q=46.0 size=       0KiB time=00:00:00.58 bitrate=   6.6kbits/s speed=0.113x elapsed=0:00:05.11    \nframe=   33 fps=5.9 q=46.0 size=       0KiB time=00:00:00.66 bitrate=   5.8kbits/s speed=0.117x elapsed=0:00:05.63    \nframe=   35 fps=5.6 q=47.0 size=       0KiB time=00:00:00.70 bitrate=   5.5kbits/s speed=0.113x elapsed=0:00:06.19    \nframe=   39 fps=5.8 q=46.0 size=       0KiB time=00:00:00.78 bitrate=   4.9kbits/s speed=0.116x elapsed=0:00:06.73    \nframe=   43 fps=5.9 q=46.0 size=       0KiB time=00:00:00.86 bitrate=   4.5kbits/s speed=0.117x elapsed=0:00:07.32    \nframe=   45 fps=5.7 q=30.0 size=       0KiB time=00:00:00.90 bitrate=   4.3kbits/s speed=0.114x elapsed=0:00:07.87    \nframe=   49 fps=5.8 q=46.0 size=       0KiB time=00:00:00.98 bitrate=   3.9kbits/s speed=0.116x elapsed=0:00:08.42    \nframe=   53 fps=5.9 q=47.0 size=       0KiB time=00:00:01.06 bitrate=   3.6kbits/s speed=0.118x elapsed=0:00:09.01    \nframe=   55 fps=5.7 q=48.0 size=       0KiB time=00:00:01.10 bitrate=   3.5kbits/s speed=0.115x elapsed=0:00:09.59    \nframe=   59 fps=5.8 q=46.0 size=       0KiB time=00:00:01.18 bitrate=   3.3kbits/s speed=0.117x elapsed=0:00:10.12    \nframe=   62 fps=5.8 q=46.0 size=       0KiB time=00:00:01.24 bitrate=   3.1kbits/s speed=0.116x elapsed=0:00:10.69    \nframe=   66 fps=5.9 q=45.0 size=       0KiB time=00:00:01.32 bitrate=   2.9kbits/s speed=0.117x elapsed=0:00:11.24    \nframe=   69 fps=5.9 q=44.0 size=       0KiB time=00:00:01.38 bitrate=   2.8kbits/s speed=0.117x elapsed=0:00:11.77    \nframe=   73 fps=5.9 q=46.0 size=       0KiB time=00:00:01.44 bitrate=   2.7kbits/s speed=0.117x elapsed=0:00:12.29    \nframe=   76 fps=5.9 q=47.0 size=       0KiB time=00:00:01.52 bitrate=   2.5kbits/s speed=0.118x elapsed=0:00:12.89    \nframe=   77 fps=5.7 q=47.0 size=       0KiB time=00:00:01.54 bitrate=   2.5kbits/s speed=0.114x elapsed=0:00:13.46    \nframe=   81 fps=5.8 q=46.0 size=       0KiB time=00:00:01.62 bitrate=   2.4kbits/s speed=0.116x elapsed=0:00:14.01    \nframe=   84 fps=5.8 q=46.0 size=       0KiB time=00:00:01.68 bitrate=   2.3kbits/s speed=0.115x elapsed=0:00:14.57    \nframe=   88 fps=5.8 q=46.0 size=       0KiB time=00:00:01.76 bitrate=   2.2kbits/s speed=0.116x elapsed=0:00:15.14    \nframe=   91 fps=5.8 q=45.0 size=       0KiB time=00:00:01.80 bitrate=   2.1kbits/s speed=0.114x elapsed=0:00:15.79    \nframe=   94 fps=5.7 q=46.0 size=       0KiB time=00:00:01.88 bitrate=   2.1kbits/s speed=0.115x elapsed=0:00:16.40    \nframe=   98 fps=5.8 q=47.0 size=       0KiB time=00:00:01.94 bitrate=   2.0kbits/s speed=0.114x elapsed=0:00:16.95    \nframe=   99 fps=5.6 q=47.0 size=       0KiB time=00:00:01.98 bitrate=   1.9kbits/s speed=0.113x elapsed=0:00:17.55    \nframe=  103 fps=5.7 q=46.0 size=       0KiB time=00:00:02.06 bitrate=   1.9kbits/s speed=0.113x elapsed=0:00:18.20    \nframe=  107 fps=5.7 q=47.0 size=       0KiB time=00:00:02.12 bitrate=   1.8kbits/s speed=0.113x elapsed=0:00:18.82    \nframe=  110 fps=5.7 q=47.0 size=       0KiB time=00:00:02.20 bitrate=   1.8kbits/s speed=0.113x elapsed=0:00:19.45    \nframe=  113 fps=5.6 q=45.0 size=       0KiB time=00:00:02.26 bitrate=   1.7kbits/s speed=0.113x elapsed=0:00:20.06    \nframe=  117 fps=5.7 q=46.0 size=       0KiB time=00:00:02.34 bitrate=   1.6kbits/s speed=0.114x elapsed=0:00:20.59    \nframe=  119 fps=5.6 q=45.0 size=       0KiB time=00:00:02.38 bitrate=   1.6kbits/s speed=0.112x elapsed=0:00:21.23    \nframe=  123 fps=5.6 q=45.0 size=       0KiB time=00:00:02.46 bitrate=   1.6kbits/s speed=0.113x elapsed=0:00:21.77    \nframe=  127 fps=5.7 q=46.0 size=       0KiB time=00:00:02.52 bitrate=   1.5kbits/s speed=0.113x elapsed=0:00:22.30    \nframe=  128 fps=5.6 q=46.0 size=       0KiB time=00:00:02.56 bitrate=   1.5kbits/s speed=0.112x elapsed=0:00:22.85    \nframe=  131 fps=5.6 q=45.0 size=    1280KiB time=00:00:02.62 bitrate=4002.2kbits/s speed=0.112x elapsed=0:00:23.42    \nframe=  135 fps=5.6 q=47.0 size=    1280KiB time=00:00:02.68 bitrate=3912.6kbits/s speed=0.112x elapsed=0:00:23.97    \nframe=  139 fps=5.6 q=47.0 size=    1280KiB time=00:00:02.78 bitrate=3771.9kbits/s speed=0.113x elapsed=0:00:24.62    \nframe=  142 fps=5.6 q=46.0 size=    1280KiB time=00:00:02.82 bitrate=3718.4kbits/s speed=0.112x elapsed=0:00:25.23    \nframe=  145 fps=5.6 q=46.0 size=    1280KiB time=00:00:02.90 bitrate=3615.8kbits/s speed=0.112x elapsed=0:00:25.82    \nframe=  148 fps=5.6 q=46.0 size=    1280KiB time=00:00:02.96 bitrate=3542.5kbits/s speed=0.112x elapsed=0:00:26.37    \nframe=  150 fps=5.6 q=46.0 size=    1280KiB time=00:00:03.00 bitrate=3495.3kbits/s speed=0.111x elapsed=0:00:26.97    \nframe=  153 fps=5.6 q=45.0 size=    1280KiB time=00:00:03.06 bitrate=3426.7kbits/s speed=0.111x elapsed=0:00:27.50    \nframe=  157 fps=5.6 q=46.0 size=    1280KiB time=00:00:03.14 bitrate=3339.4kbits/s speed=0.112x elapsed=0:00:28.04    \nframe=  161 fps=5.6 q=46.0 size=    1280KiB time=00:00:03.20 bitrate=3276.8kbits/s speed=0.112x elapsed=0:00:28.59    \nframe=  163 fps=5.6 q=46.0 size=    1280KiB time=00:00:03.24 bitrate=3236.3kbits/s speed=0.111x elapsed=0:00:29.17    \nframe=  167 fps=5.6 q=46.0 size=    1280KiB time=00:00:03.34 bitrate=3139.4kbits/s speed=0.112x elapsed=0:00:29.82    \nframe=  172 fps=5.7 q=46.0 size=    1280KiB time=00:00:03.44 bitrate=3048.2kbits/s speed=0.113x elapsed=0:00:30.35    \nframe=  175 fps=5.7 q=42.0 size=    1280KiB time=00:00:03.50 bitrate=2995.9kbits/s speed=0.113x elapsed=0:00:30.87    \nframe=  180 fps=5.7 q=44.0 size=    1280KiB time=00:00:03.60 bitrate=2912.7kbits/s speed=0.115x elapsed=0:00:31.39    \nframe=  183 fps=5.7 q=45.0 size=    1280KiB time=00:00:03.66 bitrate=2865.0kbits/s speed=0.115x elapsed=0:00:31.92    \nframe=  189 fps=5.8 q=45.0 size=    1280KiB time=00:00:03.78 bitrate=2774.0kbits/s speed=0.116x elapsed=0:00:32.47    \nframe=  194 fps=5.9 q=45.0 size=    1280KiB time=00:00:03.88 bitrate=2702.5kbits/s speed=0.118x elapsed=0:00:33.01    \nframe=  198 fps=5.9 q=44.0 size=    1280KiB time=00:00:03.96 bitrate=2647.9kbits/s speed=0.118x elapsed=0:00:33.57    \nframe=  203 fps=6.0 q=45.0 size=    1280KiB time=00:00:04.06 bitrate=2582.7kbits/s speed=0.119x elapsed=0:00:34.10    \nframe=  207 fps=6.0 q=45.0 size=    1280KiB time=00:00:04.14 bitrate=2532.8kbits/s speed=0.12x elapsed=0:00:34.62    \nframe=  211 fps=6.0 q=45.0 size=    1280KiB time=00:00:04.22 bitrate=2484.8kbits/s speed=0.12x elapsed=0:00:35.13    \nframe=  216 fps=6.1 q=46.0 size=    1280KiB time=00:00:04.32 bitrate=2427.3kbits/s speed=0.121x elapsed=0:00:35.64    \nframe=  220 fps=6.1 q=44.0 size=    1280KiB time=00:00:04.40 bitrate=2383.1kbits/s speed=0.122x elapsed=0:00:36.18    \nframe=  225 fps=6.1 q=45.0 size=    1280KiB time=00:00:04.50 bitrate=2330.2kbits/s speed=0.123x elapsed=0:00:36.71    \nframe=  228 fps=6.1 q=26.0 size=    1280KiB time=00:00:04.56 bitrate=2299.5kbits/s speed=0.122x elapsed=0:00:37.24    \nframe=  233 fps=6.2 q=44.0 size=    1280KiB time=00:00:04.66 bitrate=2250.2kbits/s speed=0.123x elapsed=0:00:37.76    \nframe=  238 fps=6.2 q=46.0 size=    1280KiB time=00:00:04.76 bitrate=2202.9kbits/s speed=0.124x elapsed=0:00:38.28    \nframe=  241 fps=6.2 q=46.0 size=    1280KiB time=00:00:04.82 bitrate=2175.5kbits/s speed=0.124x elapsed=0:00:38.80    \nframe=  246 fps=6.3 q=48.0 size=    1280KiB time=00:00:04.92 bitrate=2131.3kbits/s speed=0.125x elapsed=0:00:39.32    \nframe=  250 fps=6.3 q=47.0 size=    1280KiB time=00:00:05.00 bitrate=2097.2kbits/s speed=0.125x elapsed=0:00:39.85    \nframe=  255 fps=6.3 q=47.0 size=    1280KiB time=00:00:05.10 bitrate=2056.0kbits/s speed=0.126x elapsed=0:00:40.38    \nframe=  258 fps=6.3 q=46.0 size=    2560KiB time=00:00:05.16 bitrate=4064.2kbits/s speed=0.126x elapsed=0:00:40.91    \nframe=  263 fps=6.3 q=46.0 size=    2560KiB time=00:00:05.26 bitrate=3987.0kbits/s speed=0.127x elapsed=0:00:41.44    \nframe=  267 fps=6.4 q=46.0 size=    2560KiB time=00:00:05.34 bitrate=3927.3kbits/s speed=0.127x elapsed=0:00:41.97    \nframe=  272 fps=6.4 q=45.0 size=    2560KiB time=00:00:05.44 bitrate=3855.1kbits/s speed=0.128x elapsed=0:00:42.49    \nframe=  277 fps=6.4 q=46.0 size=    2560KiB time=00:00:05.54 bitrate=3785.5kbits/s speed=0.129x elapsed=0:00:43.02    \nframe=  280 fps=6.4 q=46.0 size=    2560KiB time=00:00:05.60 bitrate=3744.9kbits/s speed=0.129x elapsed=0:00:43.55    \nframe=  285 fps=6.5 q=43.0 size=    2560KiB time=00:00:05.70 bitrate=3679.2kbits/s speed=0.129x elapsed=0:00:44.07    \nframe=  289 fps=6.5 q=43.0 size=    2560KiB time=00:00:05.78 bitrate=3628.3kbits/s speed=0.13x elapsed=0:00:44.61    \nframe=  294 fps=6.5 q=44.0 size=    2560KiB time=00:00:05.88 bitrate=3566.6kbits/s speed=0.13x elapsed=0:00:45.15    \nframe=  299 fps=6.5 q=45.0 size=    2560KiB time=00:00:05.98 bitrate=3506.9kbits/s speed=0.131x elapsed=0:00:45.70    \nframe=  303 fps=6.6 q=44.0 size=    2560KiB time=00:00:06.06 bitrate=3460.6kbits/s speed=0.131x elapsed=0:00:46.25    \nframe=  308 fps=6.6 q=44.0 size=    2560KiB time=00:00:06.16 bitrate=3404.5kbits/s speed=0.132x elapsed=0:00:46.77    \nframe=  311 fps=6.6 q=45.0 size=    2560KiB time=00:00:06.22 bitrate=3371.6kbits/s speed=0.131x elapsed=0:00:47.31    \nframe=  316 fps=6.6 q=44.0 size=    2560KiB time=00:00:06.32 bitrate=3318.3kbits/s speed=0.132x elapsed=0:00:47.84    \nframe=  320 fps=6.6 q=46.0 size=    2560KiB time=00:00:06.40 bitrate=3276.8kbits/s speed=0.132x elapsed=0:00:48.37    \nframe=  323 fps=6.6 q=27.0 size=    2560KiB time=00:00:06.46 bitrate=3246.4kbits/s speed=0.132x elapsed=0:00:48.88    \nframe=  328 fps=6.6 q=47.0 size=    2560KiB time=00:00:06.56 bitrate=3196.9kbits/s speed=0.133x elapsed=0:00:49.41    \nframe=  333 fps=6.7 q=47.0 size=    2560KiB time=00:00:06.66 bitrate=3148.9kbits/s speed=0.133x elapsed=0:00:49.91    \nframe=  337 fps=6.7 q=45.0 size=    2560KiB time=00:00:06.74 bitrate=3111.5kbits/s speed=0.134x elapsed=0:00:50.47    \nframe=  342 fps=6.7 q=44.0 size=    2560KiB time=00:00:06.84 bitrate=3066.0kbits/s speed=0.134x elapsed=0:00:51.04    \nframe=  345 fps=6.7 q=28.0 size=    2560KiB time=00:00:06.90 bitrate=3039.4kbits/s speed=0.134x elapsed=0:00:51.56    \nframe=  350 fps=6.7 q=46.0 size=    2560KiB time=00:00:07.00 bitrate=2995.9kbits/s speed=0.134x elapsed=0:00:52.08    \nframe=  354 fps=6.7 q=48.0 size=    2560KiB time=00:00:07.08 bitrate=2962.1kbits/s speed=0.135x elapsed=0:00:52.62    \nframe=  357 fps=6.7 q=48.0 size=    2560KiB time=00:00:07.14 bitrate=2937.2kbits/s speed=0.134x elapsed=0:00:53.14    \nframe=  362 fps=6.7 q=46.0 size=    2560KiB time=00:00:07.24 bitrate=2896.6kbits/s speed=0.135x elapsed=0:00:53.67    \nframe=  366 fps=6.7 q=46.0 size=    2560KiB time=00:00:07.32 bitrate=2865.0kbits/s speed=0.135x elapsed=0:00:54.22    \nframe=  371 fps=6.8 q=47.0 size=    2560KiB time=00:00:07.42 bitrate=2826.4kbits/s speed=0.135x elapsed=0:00:54.77    \nframe=  375 fps=6.8 q=48.0 size=    2560KiB time=00:00:07.50 bitrate=2796.2kbits/s speed=0.136x elapsed=0:00:55.30    \nframe=  379 fps=6.8 q=46.0 size=    2560KiB time=00:00:07.58 bitrate=2766.7kbits/s speed=0.136x elapsed=0:00:55.82    \nframe=  384 fps=6.8 q=48.0 size=    2560KiB time=00:00:07.68 bitrate=2730.7kbits/s speed=0.136x elapsed=0:00:56.34    \nframe=  387 fps=6.8 q=45.0 size=    3840KiB time=00:00:07.74 bitrate=4064.2kbits/s speed=0.136x elapsed=0:00:56.89    \nframe=  393 fps=6.8 q=46.0 size=    3840KiB time=00:00:07.86 bitrate=4002.2kbits/s speed=0.137x elapsed=0:00:57.41    \nframe=  397 fps=6.9 q=45.0 size=    3840KiB time=00:00:07.94 bitrate=3961.9kbits/s speed=0.137x elapsed=0:00:57.93    \nframe=  401 fps=6.9 q=45.0 size=    3840KiB time=00:00:08.02 bitrate=3922.4kbits/s speed=0.137x elapsed=0:00:58.46    \nframe=  406 fps=6.9 q=47.0 size=    3840KiB time=00:00:08.12 bitrate=3874.0kbits/s speed=0.138x elapsed=0:00:58.98    \nframe=  409 fps=6.9 q=45.0 size=    3840KiB time=00:00:08.18 bitrate=3845.6kbits/s speed=0.137x elapsed=0:00:59.52    \nframe=  414 fps=6.9 q=46.0 size=    3840KiB time=00:00:08.28 bitrate=3799.2kbits/s speed=0.138x elapsed=0:01:00.03    \nframe=  417 fps=6.9 q=47.0 size=    3840KiB time=00:00:08.34 bitrate=3771.9kbits/s speed=0.138x elapsed=0:01:00.54    \nframe=  422 fps=6.9 q=46.0 size=    3840KiB time=00:00:08.44 bitrate=3727.2kbits/s speed=0.138x elapsed=0:01:01.06    \nframe=  427 fps=6.9 q=47.0 size=    3840KiB time=00:00:08.54 bitrate=3683.5kbits/s speed=0.139x elapsed=0:01:01.57    \nframe=  430 fps=6.9 q=46.0 size=    3840KiB time=00:00:08.60 bitrate=3657.8kbits/s speed=0.139x elapsed=0:01:02.09    \nframe=  435 fps=6.9 q=46.0 size=    3840KiB time=00:00:08.70 bitrate=3615.8kbits/s speed=0.139x elapsed=0:01:02.60    \nframe=  439 fps=7.0 q=47.0 size=    3840KiB time=00:00:08.78 bitrate=3582.8kbits/s speed=0.139x elapsed=0:01:03.12    \nframe=  443 fps=7.0 q=46.0 size=    3840KiB time=00:00:08.86 bitrate=3550.5kbits/s speed=0.139x elapsed=0:01:03.66    \nframe=  448 fps=7.0 q=46.0 size=    3840KiB time=00:00:08.96 bitrate=3510.9kbits/s speed=0.14x elapsed=0:01:04.16    \nframe=  451 fps=7.0 q=27.0 size=    3840KiB time=00:00:09.02 bitrate=3487.5kbits/s speed=0.139x elapsed=0:01:04.68    \nframe=  456 fps=7.0 q=45.0 size=    3840KiB time=00:00:09.12 bitrate=3449.3kbits/s speed=0.14x elapsed=0:01:05.20    \nframe=  460 fps=7.0 q=46.0 size=    3840KiB time=00:00:09.20 bitrate=3419.3kbits/s speed=0.14x elapsed=0:01:05.72    \nframe=  464 fps=7.0 q=46.0 size=    3840KiB time=00:00:09.28 bitrate=3389.8kbits/s speed=0.14x elapsed=0:01:06.23    \nframe=  468 fps=7.0 q=46.0 size=    3840KiB time=00:00:09.36 bitrate=3360.8kbits/s speed=0.14x elapsed=0:01:06.75    \nframe=  472 fps=7.0 q=46.0 size=    3840KiB time=00:00:09.44 bitrate=3332.3kbits/s speed=0.14x elapsed=0:01:07.26    \nframe=  476 fps=7.0 q=45.0 size=    3840KiB time=00:00:09.52 bitrate=3304.3kbits/s speed=0.14x elapsed=0:01:07.78    \nframe=  476 fps=7.0 q=45.0 size=    3840KiB time=00:00:09.52 bitrate=3304.3kbits/s speed=0.139x elapsed=0:01:08.29    \nframe=  476 fps=6.9 q=45.0 size=    3840KiB time=00:00:09.52 bitrate=3304.3kbits/s speed=0.138x elapsed=0:01:08.80    \nframe=  476 fps=6.9 q=45.0 size=    3840KiB time=00:00:09.52 bitrate=3304.3kbits/s speed=0.137x elapsed=0:01:09.32    \nframe=  476 fps=6.8 q=45.0 size=    3840KiB time=00:00:09.52 bitrate=3304.3kbits/s speed=0.136x elapsed=0:01:09.84    \nframe=  476 fps=6.8 q=45.0 size=    3840KiB time=00:00:09.52 bitrate=3304.3kbits/s speed=0.135x elapsed=0:01:10.36    \n[out#0/webm @ 000001707ba89b00] video:5305KiB audio:0KiB subtitle:0KiB other streams:0KiB global headers:0KiB muxing overhead: 0.076413%\nframe=  500 fps=7.1 q=45.0 Lsize=    5309KiB time=00:00:10.00 bitrate=4349.2kbits/s speed=0.142x elapsed=0:01:10.38    \n",
  "seconds": 70.61590671539307,
  "probe_out": {}
}